{
  "accessors": [
    {
      "bufferView": 2,
      "componentType": 5126,
      "count": 6683,
      "max": [
        1.0930140018463135,
        2.577402114868164,
        0.6738970279693604
      ],
      "min": [
        -1.0930140018463135,
        -2.661130905151367,
        -0.7489719986915588
      ],
      "type": "VEC3"
    },
    {
      "bufferView": 2,
      "byteOffset": 80196,
      "componentType": 5126,
      "count": 6683,
      "max": [
        1.0,
        0.9996491074562073,
        0.9996691346168518
      ],
      "min": [
        -1.0,
        -0.9999852776527405,
        -0.9999969601631165
      ],
      "type": "VEC3"
    },
    {
      "bufferView": 1,
      "componentType": 5126,
      "count": 6683,
      "max": [
        1.9953809976577759,
        1.729828953742981
      ],
      "min": [
        0.00304599991068244,
        -0.29063498973846436
      ],
      "type": "VEC2"
    },
    {
      "bufferView": 0,
      "componentType": 5125,
      "count": 17358,
      "type": "SCALAR"
    },
    {
      "bufferView": 2,
      "byteOffset": 160392,
      "componentType": 5126,
      "count": 194,
      "max": [
        0.07096350193023682,
        0.33063170313835144,
        0.32809552550315857
      ],
      "min": [
        -0.14499640464782715,
        -0.33021828532218933,
        -0.3327544629573822
      ],
      "type": "VEC3"
    },
    {
      "bufferView": 2,
      "byteOffset": 162720,
      "componentType": 5126,
      "count": 194,
      "max": [
        0.9974469542503357,
        0.938654363155365,
        0.9386544823646545
      ],
      "min": [
        -0.9974469542503357,
        -0.938654363155365,
        -0.9386545419692993
      ],
      "type": "VEC3"
    },
    {
      "bufferView": 1,
      "byteOffset": 53464,
      "componentType": 5126,
      "count": 194,
      "max": [
        2.000361919403076,
        0.9793739914894104
      ],
      "min": [
        0.0,
        0.035642001777887344
      ],
      "type": "VEC2"
    },
    {
      "bufferView": 0,
      "byteOffset": 69432,
      "componentType": 5125,
      "count": 720,
      "type": "SCALAR"
    },
    {
      "bufferView": 2,
      "byteOffset": 165048,
      "componentType": 5126,
      "count": 1044,
      "max": [
        0.06822992861270905,
        0.2424439638853073,
        0.24247662723064423
      ],
      "min": [
        -0.19699518382549286,
        -0.24261362850666046,
        -0.24244394898414612
      ],
      "type": "VEC3"
    },
    {
      "bufferView": 2,
      "byteOffset": 177576,
      "componentType": 5126,
      "count": 1044,
      "max": [
        1.0,
        0.9910926222801208,
        0.9911744594573975
      ],
      "min": [
        -1.0,
        -0.9913989901542664,
        -0.9913198947906494
      ],
      "type": "VEC3"
    },
    {
      "bufferView": 1,
      "byteOffset": 55016,
      "componentType": 5126,
      "count": 1044,
      "max": [
        0.9832540154457092,
        0.991487979888916
      ],
      "min": [
        0.01789899915456772,
        0.02563999965786934
      ],
      "type": "VEC2"
    },
    {
      "bufferView": 0,
      "byteOffset": 72312,
      "componentType": 5125,
      "count": 3384,
      "type": "SCALAR"
    },
    {
      "bufferView": 2,
      "byteOffset": 190104,
      "componentType": 5126,
      "count": 194,
      "max": [
        0.07096350193023682,
        0.33063170313835144,
        0.32809552550315857
      ],
      "min": [
        -0.14499640464782715,
        -0.33021828532218933,
        -0.3327544629573822
      ],
      "type": "VEC3"
    },
    {
      "bufferView": 2,
      "byteOffset": 192432,
      "componentType": 5126,
      "count": 194,
      "max": [
        0.9974469542503357,
        0.938654363155365,
        0.9386544823646545
      ],
      "min": [
        -0.9974469542503357,
        -0.938654363155365,
        -0.9386545419692993
      ],
      "type": "VEC3"
    },
    {
      "bufferView": 1,
      "byteOffset": 63368,
      "componentType": 5126,
      "count": 194,
      "max": [
        2.000361919403076,
        0.9793739914894104
      ],
      "min": [
        0.0,
        0.035642001777887344
      ],
      "type": "VEC2"
    },
    {
      "bufferView": 0,
      "byteOffset": 85848,
      "componentType": 5125,
      "count": 720,
      "type": "SCALAR"
    },
    {
      "bufferView": 2,
      "byteOffset": 194760,
      "componentType": 5126,
      "count": 1044,
      "max": [
        0.06822992861270905,
        0.2424439638853073,
        0.24247662723064423
      ],
      "min": [
        -0.19699518382549286,
        -0.24261362850666046,
        -0.24244394898414612
      ],
      "type": "VEC3"
    },
    {
      "bufferView": 2,
      "byteOffset": 207288,
      "componentType": 5126,
      "count": 1044,
      "max": [
        1.0,
        0.9910926222801208,
        0.9911744594573975
      ],
      "min": [
        -1.0,
        -0.9913989901542664,
        -0.9913198947906494
      ],
      "type": "VEC3"
    },
    {
      "bufferView": 1,
      "byteOffset": 64920,
      "componentType": 5126,
      "count": 1044,
      "max": [
        0.9832540154457092,
        0.991487979888916
      ],
      "min": [
        0.01789899915456772,
        0.02563999965786934
      ],
      "type": "VEC2"
    },
    {
      "bufferView": 0,
      "byteOffset": 88728,
      "componentType": 5125,
      "count": 3384,
      "type": "SCALAR"
    },
    {
      "bufferView": 2,
      "byteOffset": 219816,
      "componentType": 5126,
      "count": 194,
      "max": [
        0.07096350193023682,
        0.33063170313835144,
        0.32809552550315857
      ],
      "min": [
        -0.14499640464782715,
        -0.33021828532218933,
        -0.3327544629573822
      ],
      "type": "VEC3"
    },
    {
      "bufferView": 2,
      "byteOffset": 222144,
      "componentType": 5126,
      "count": 194,
      "max": [
        0.9974469542503357,
        0.938654363155365,
        0.9386544823646545
      ],
      "min": [
        -0.9974469542503357,
        -0.938654363155365,
        -0.9386545419692993
      ],
      "type": "VEC3"
    },
    {
      "bufferView": 1,
      "byteOffset": 73272,
      "componentType": 5126,
      "count": 194,
      "max": [
        2.000361919403076,
        0.9793739914894104
      ],
      "min": [
        0.0,
        0.035642001777887344
      ],
      "type": "VEC2"
    },
    {
      "bufferView": 0,
      "byteOffset": 102264,
      "componentType": 5125,
      "count": 720,
      "type": "SCALAR"
    },
    {
      "bufferView": 2,
      "byteOffset": 224472,
      "componentType": 5126,
      "count": 1044,
      "max": [
        0.06822992861270905,
        0.2424439638853073,
        0.24247662723064423
      ],
      "min": [
        -0.19699518382549286,
        -0.24261362850666046,
        -0.24244394898414612
      ],
      "type": "VEC3"
    },
    {
      "bufferView": 2,
      "byteOffset": 237000,
      "componentType": 5126,
      "count": 1044,
      "max": [
        1.0,
        0.9910926222801208,
        0.9911744594573975
      ],
      "min": [
        -1.0,
        -0.9913989901542664,
        -0.9913198947906494
      ],
      "type": "VEC3"
    },
    {
      "bufferView": 1,
      "byteOffset": 74824,
      "componentType": 5126,
      "count": 1044,
      "max": [
        0.9832540154457092,
        0.991487979888916
      ],
      "min": [
        0.01789899915456772,
        0.02563999965786934
      ],
      "type": "VEC2"
    },
    {
      "bufferView": 0,
      "byteOffset": 105144,
      "componentType": 5125,
      "count": 3384,
      "type": "SCALAR"
    },
    {
      "bufferView": 2,
      "byteOffset": 249528,
      "componentType": 5126,
      "count": 194,
      "max": [
        0.07096350193023682,
        0.33063170313835144,
        0.32809552550315857
      ],
      "min": [
        -0.14499640464782715,
        -0.33021828532218933,
        -0.3327544629573822
      ],
      "type": "VEC3"
    },
    {
      "bufferView": 2,
      "byteOffset": 251856,
      "componentType": 5126,
      "count": 194,
      "max": [
        0.9974469542503357,
        0.938654363155365,
        0.9386544823646545
      ],
      "min": [
        -0.9974469542503357,
        -0.938654363155365,
        -0.9386545419692993
      ],
      "type": "VEC3"
    },
    {
      "bufferView": 1,
      "byteOffset": 83176,
      "componentType": 5126,
      "count": 194,
      "max": [
        2.000361919403076,
        0.9793739914894104
      ],
      "min": [
        0.0,
        0.035642001777887344
      ],
      "type": "VEC2"
    },
    {
      "bufferView": 0,
      "byteOffset": 118680,
      "componentType": 5125,
      "count": 720,
      "type": "SCALAR"
    },
    {
      "bufferView": 2,
      "byteOffset": 254184,
      "componentType": 5126,
      "count": 1044,
      "max": [
        0.06822992861270905,
        0.2424439638853073,
        0.24247662723064423
      ],
      "min": [
        -0.19699518382549286,
        -0.24261362850666046,
        -0.24244394898414612
      ],
      "type": "VEC3"
    },
    {
      "bufferView": 2,
      "byteOffset": 266712,
      "componentType": 5126,
      "count": 1044,
      "max": [
        1.0,
        0.9910926222801208,
        0.9911744594573975
      ],
      "min": [
        -1.0,
        -0.9913989901542664,
        -0.9913198947906494
      ],
      "type": "VEC3"
    },
    {
      "bufferView": 1,
      "byteOffset": 84728,
      "componentType": 5126,
      "count": 1044,
      "max": [
        0.9832540154457092,
        0.991487979888916
      ],
      "min": [
        0.01789899915456772,
        0.02563999965786934
      ],
      "type": "VEC2"
    },
    {
      "bufferView": 0,
      "byteOffset": 121560,
      "componentType": 5125,
      "count": 3384,
      "type": "SCALAR"
    }
  ],
  "asset": {
    "extras": {
      "author": "Korolv (https://sketchfab.com/Korolv)",
      "license": "SKETCHFAB Standard (https://sketchfab.com/licenses)",
      "source": "https://sketchfab.com/3d-models/toyota-camry-102ee362ef31442e9bdcf1d64a86727c",
      "title": "Toyota Camry"
    },
    "generator": "Sketchfab-16.52.0",
    "version": "2.0"
  },
  "bufferViews": [
    {
      "buffer": 0,
      "byteLength": 135096,
      "name": "floatBufferViews",
      "target": 34963
    },
    {
      "buffer": 0,
      "byteLength": 93080,
      "byteOffset": 135096,
      "byteStride": 8,
      "name": "floatBufferViews",
      "target": 34962
    },
    {
      "buffer": 0,
      "byteLength": 279240,
      "byteOffset": 228176,
      "byteStride": 12,
      "name": "floatBufferViews",
      "target": 34962
    }
  ],
  "buffers": [
    {
      "byteLength": 507416,
      "uri": "scene.bin"
    }
  ],
  "images": [
    {
      "uri": "textures/body_baseColor.png"
    },
    {
      "uri": "textures/body_metallicRoughness.png"
    },
    {
      "uri": "textures/tire_baseColor.png"
    },
    {
      "uri": "textures/wheel_baseColor.png"
    },
    {
      "uri": "textures/wheel_metallicRoughness.png"
    }
  ],
  "materials": [
    {
      "name": "body",
      "pbrMetallicRoughness": {
        "baseColorTexture": {
          "index": 0
        },
        "metallicFactor": 0.0,
        "metallicRoughnessTexture": {
          "index": 1
        }
      }
    },
    {
      "name": "tire",
      "pbrMetallicRoughness": {
        "baseColorTexture": {
          "index": 2
        },
        "metallicFactor": 0.0
      }
    },
    {
      "name": "wheel",
      "pbrMetallicRoughness": {
        "baseColorTexture": {
          "index": 3
        },
        "metallicFactor": 0.0,
        "metallicRoughnessTexture": {
          "index": 4
        }
      }
    }
  ],
  "meshes": [
    {
      "name": "body_body_0",
      "primitives": [
        {
          "attributes": {
            "NORMAL": 1,
            "POSITION": 0,
            "TEXCOORD_0": 2
          },
          "indices": 3,
          "material": 0,
          "mode": 4
        }
      ]
    },
    {
      "name": "wheel_F_R_tire_0",
      "primitives": [
        {
          "attributes": {
            "NORMAL": 5,
            "POSITION": 4,
            "TEXCOORD_0": 6
          },
          "indices": 7,
          "material": 1,
          "mode": 4
        }
      ]
    },
    {
      "name": "wheel_F_R_wheel_0",
      "primitives": [
        {
          "attributes": {
            "NORMAL": 9,
            "POSITION": 8,
            "TEXCOORD_0": 10
          },
          "indices": 11,
          "material": 2,
          "mode": 4
        }
      ]
    },
    {
      "name": "wheel_B_R_tire_0",
      "primitives": [
        {
          "attributes": {
            "NORMAL": 13,
            "POSITION": 12,
            "TEXCOORD_0": 14
          },
          "indices": 15,
          "material": 1,
          "mode": 4
        }
      ]
    },
    {
      "name": "wheel_B_R_wheel_0",
      "primitives": [
        {
          "attributes": {
            "NORMAL": 17,
            "POSITION": 16,
            "TEXCOORD_0": 18
          },
          "indices": 19,
          "material": 2,
          "mode": 4
        }
      ]
    },
    {
      "name": "wheel_F_L_tire_0",
      "primitives": [
        {
          "attributes": {
            "NORMAL": 21,
            "POSITION": 20,
            "TEXCOORD_0": 22
          },
          "indices": 23,
          "material": 1,
          "mode": 4
        }
      ]
    },
    {
      "name": "wheel_F_L_wheel_0",
      "primitives": [
        {
          "attributes": {
            "NORMAL": 25,
            "POSITION": 24,
            "TEXCOORD_0": 26
          },
          "indices": 27,
          "material": 2,
          "mode": 4
        }
      ]
    },
    {
      "name": "wheel_B_L_tire_0",
      "primitives": [
        {
          "attributes": {
            "NORMAL": 29,
            "POSITION": 28,
            "TEXCOORD_0": 30
          },
          "indices": 31,
          "material": 1,
          "mode": 4
        }
      ]
    },
    {
      "name": "wheel_B_L_wheel_0",
      "primitives": [
        {
          "attributes": {
            "NORMAL": 33,
            "POSITION": 32,
            "TEXCOORD_0": 34
          },
          "indices": 35,
          "material": 2,
          "mode": 4
        }
      ]
    }
  ],
  "nodes": [
    {
      "children": [
        1
      ],
      "matrix": [
        1.0,
        0.0,
        0.0,
        0.0,
        0.0,
        2.220446049250313e-16,
        -1.0,
        0.0,
        0.0,
        1.0,
        2.220446049250313e-16,
        0.0,
        0.0,
        0.0,
        0.0,
        1.0
      ],
      "name": "Sketchfab_model"
    },
    {
      "children": [
        2
      ],
      "matrix": [
        0.009999999776482582,
        0.0,
        0.0,
        0.0,
        0.0,
        0.0,
        0.009999999776482582,
        0.0,
        0.0,
        -0.009999999776482582,
        0.0,
        0.0,
        0.0,
        0.0,
        0.0,
        1.0
      ],
      "name": "97ecd2983d3b4d3f89767a91ad629c2b.fbx"
    },
    {
      "children": [
        3,
        5,
        8,
        11,
        14
      ],
      "name": "RootNode"
    },
    {
      "children": [
        4
      ],
      "matrix": [
        100.0,
        2.220447108041497e-14,
        -2.220446843343701e-14,
        0.0,
        -2.2204464815869196e-14,
        -1.629206793918314e-05,
        -99.99999999999868,
        0.0,
        -2.220447469798176e-14,
        99.99999999999868,
        -1.629206793918314e-05,
        0.0,
        0.0,
        76.04020690917969,
        0.0,
        1.0
      ],
      "name": "body"
    },
    {
      "mesh": 0,
      "name": "body_body_0"
    },
    {
      "children": [
        6,
        7
      ],
      "matrix": [
        -99.99999999999241,
        1.2246465878873718e-14,
        3.8941437775530106e-05,
        0.0,
        3.894143777553e-05,
        7.549789982075339e-06,
        99.99999999999213,
        0.0,
        -2.9277502948264183e-12,
        99.9999999999997,
        -7.549789970973109e-06,
        0.0,
        82.35563659667969,
        19.391551971435547,
        -155.07794189453125,
        1.0
      ],
      "name": "wheel_F_R"
    },
    {
      "mesh": 1,
      "name": "wheel_F_R_tire_0"
    },
    {
      "mesh": 2,
      "name": "wheel_F_R_wheel_0"
    },
    {
      "children": [
        9,
        10
      ],
      "matrix": [
        -99.99999999999241,
        1.2246465878873718e-14,
        3.8941437775530106e-05,
        0.0,
        3.894143777553e-05,
        7.549789982075339e-06,
        99.99999999999213,
        0.0,
        -2.9277502948264183e-12,
        99.9999999999997,
        -7.549789970973109e-06,
        0.0,
        82.35563659667969,
        19.391551971435547,
        139.0043182373047,
        1.0
      ],
      "name": "wheel_B_R"
    },
    {
      "mesh": 3,
      "name": "wheel_B_R_tire_0"
    },
    {
      "mesh": 4,
      "name": "wheel_B_R_wheel_0"
    },
    {
      "children": [
        12,
        13
      ],
      "matrix": [
        99.99999999997875,
        0.0,
        -6.516827966151588e-05,
        0.0,
        -6.516827966151501e-05,
        -1.629206793918314e-05,
        -99.99999999997745,
        0.0,
        -1.0617260404688505e-11,
        99.99999999999868,
        -1.629206793918314e-05,
        0.0,
        -82.35559844970703,
        19.391551971435547,
        -155.07794189453125,
        1.0
      ],
      "name": "wheel_F_L"
    },
    {
      "mesh": 5,
      "name": "wheel_F_L_tire_0"
    },
    {
      "mesh": 6,
      "name": "wheel_F_L_wheel_0"
    },
    {
      "children": [
        15,
        16
      ],
      "matrix": [
        99.99999999997875,
        0.0,
        -6.516827966151588e-05,
        0.0,
        -6.516827966151501e-05,
        -1.629206793918314e-05,
        -99.99999999997745,
        0.0,
        -1.0617260404688505e-11,
        99.99999999999868,
        -1.629206793918314e-05,
        0.0,
        -82.35559844970703,
        19.391551971435547,
        139.0043182373047,
        1.0
      ],
      "name": "wheel_B_L"
    },
    {
      "mesh": 7,
      "name": "wheel_B_L_tire_0"
    },
    {
      "mesh": 8,
      "name": "wheel_B_L_wheel_0"
    }
  ],
  "samplers": [
    {
      "magFilter": 9729,
      "minFilter": 9987,
      "wrapS": 10497,
      "wrapT": 10497
    }
  ],
  "scene": 0,
  "scenes": [
    {
      "name": "Sketchfab_Scene",
      "nodes": [
        0
      ]
    }
  ],
  "textures": [
    {
      "sampler": 0,
      "source": 0
    },
    {
      "sampler": 0,
      "source": 1
    },
    {
      "sampler": 0,
      "source": 2
    },
    {
      "sampler": 0,
      "source": 3
    },
    {
      "sampler": 0,
      "source": 4
    }
  ]
}
